HIERARCHY
ROOT Hips
{
 OFFSET 0.000000 0.000000 0.000000
 CHANNELS 6 Xposition Yposition Zposition Yrotation Xrotation Zrotation
 JOINT Chest
 {
  OFFSET 0.000000 9.585900 0.002600
  CHANNELS 3 Yrotation Xrotation Zrotation
  JOINT Chest2
  {
   OFFSET 0.000000 9.601200 -0.005300
   CHANNELS 3 Yrotation Xrotation Zrotation
   JOINT Chest3
   {
    OFFSET 0.000000 9.561800 0.000000
    CHANNELS 3 Yrotation Xrotation Zrotation
    JOINT Chest4
    {
     OFFSET 0.000000 9.552100 0.000000
     CHANNELS 3 Yrotation Xrotation Zrotation
     JOINT Neck
     {
      OFFSET 0.000000 14.453000 0.000000
      CHANNELS 3 Yrotation Xrotation Zrotation
      JOINT Head
      {
       OFFSET 0.000000 8.936500 -0.011300
       CHANNELS 3 Yrotation Xrotation Zrotation
       End Site
       {
        OFFSET 0.000000 17.073600 -0.006000
       }
      }
     }
     JOINT RightCollar
     {
      OFFSET -2.921100 9.558500 0.000000
      CHANNELS 3 Yrotation Xrotation Zrotation
      JOINT RightShoulder
      {
       OFFSET -13.519700 0.000000 0.000000
       CHANNELS 3 Yrotation Xrotation Zrotation
       JOINT RightElbow
       {
        OFFSET 0.000000 -29.696600 0.000000
        CHANNELS 3 Yrotation Xrotation Zrotation
        JOINT RightWrist
        {
         OFFSET 0.000000 -24.004700 0.000000
         CHANNELS 3 Yrotation Xrotation Zrotation
         End Site
         {
          OFFSET 0.000000 -17.728500 0.000000
         }
        }
       }
      }
     }
     JOINT LeftCollar
     {
      OFFSET 2.921100 9.558500 0.000000
      CHANNELS 3 Yrotation Xrotation Zrotation
      JOINT LeftShoulder
      {
       OFFSET 13.519700 0.000000 0.000000
       CHANNELS 3 Yrotation Xrotation Zrotation
       JOINT LeftElbow
       {
        OFFSET 0.000000 -29.696600 0.000000
        CHANNELS 3 Yrotation Xrotation Zrotation
        JOINT LeftWrist
        {
         OFFSET 0.000000 -24.004700 0.000000
         CHANNELS 3 Yrotation Xrotation Zrotation
         End Site
         {
          OFFSET 0.000000 -17.728500 0.000000
         }
        }
       }
      }
     }
    }
   }
  }
 }
 JOINT RightHip
 {
  OFFSET -7.771700 -0.012900 -0.001300
  CHANNELS 3 Yrotation Xrotation Zrotation
  JOINT RightKnee
  {
   OFFSET 0.000000 -40.869800 0.001200
   CHANNELS 3 Yrotation Xrotation Zrotation
   JOINT RightAnkle
   {
    OFFSET 0.000000 -39.717900 0.002100
    CHANNELS 3 Yrotation Xrotation Zrotation
    JOINT RightToe
    {
     OFFSET 0.000000 -4.965400 11.033500
     CHANNELS 3 Yrotation Xrotation Zrotation
     End Site
     {
      OFFSET 0.000000 -1.423100 5.872300
     }
    }
   }
  }
 }
 JOINT LeftHip
 {
  OFFSET 7.771700 -0.012900 -0.001300
  CHANNELS 3 Yrotation Xrotation Zrotation
  JOINT LeftKnee
  {
   OFFSET 0.000000 -40.869800 0.001200
   CHANNELS 3 Yrotation Xrotation Zrotation
   JOINT LeftAnkle
   {
    OFFSET 0.000000 -39.717900 0.002100
    CHANNELS 3 Yrotation Xrotation Zrotation
    JOINT LeftToe
    {
     OFFSET 0.000000 -4.965400 11.033500
     CHANNELS 3 Yrotation Xrotation Zrotation
     End Site
     {
      OFFSET 0.000000 -1.423100 5.872300
     }
    }
   }
  }
 }
}
MOTION
Frames: 16
Frame Time: 0.008333
-37.906218 55.253369 -0.516740 -176.999503 -19.568680 -1.063639 -0.394554 17.574597 0.565131 -0.031496 1.901815 0.097905 -0.071435 3.190704 0.143596 -0.234149 15.459522 0.712067 1.159906 10.149970 -4.569874 2.378812 -14.959710 -5.307119 2.361138 2.151623 1.563697 2.544998 -10.626079 -9.127408 -85.725337 -59.459687 116.363002 -1.591663 24.483306 16.715825 -5.533528 -0.749828 1.366739 3.655940 -12.070570 7.003019 62.520655 -51.015615 -104.626017 8.001529 -1.542781 5.472691 0.521634 -55.632616 9.610436 -92.471251 88.214691 -97.724648 -12.249802 -23.381179 14.779041 0.034235 -0.041247 -0.084936 9.842155 -51.806565 -6.459653 109.539994 77.553431 105.914356 -7.928009 -23.755246 2.715999 -0.009960 0.195510 -0.001663
-37.905022 55.254475 -0.515460 -176.997293 -19.592610 -1.052286 -0.392799 17.584738 0.561198 -0.034857 1.910135 0.094776 -0.067625 3.186497 0.146915 -0.232745 15.464900 0.713181 1.164719 10.156434 -4.604539 2.392885 -14.950882 -5.341146 2.364130 2.159026 1.564288 2.575513 -10.584567 -9.061921 -85.626934 -59.466105 116.329386 -1.613873 24.442249 16.696799 -5.529738 -0.737197 1.375752 3.653786 -12.095775 6.973821 62.519442 -51.016676 -104.629541 8.007449 -1.565531 5.452498 0.511432 -55.606621 9.619253 -92.333037 88.201860 -97.592808 -12.305963 -23.364728 14.808151 0.022141 -0.040628 -0.076860 9.854058 -51.775514 -6.468753 109.492129 77.558594 105.866475 -7.938185 -23.756837 2.714964 -0.007508 0.201355 0.002416
-37.903601 55.255466 -0.513603 -176.997611 -19.610984 -1.041871 -0.387696 17.591785 0.560077 -0.038464 1.916689 0.091068 -0.062310 3.184860 0.150534 -0.228008 15.471237 0.713534 1.168406 10.161969 -4.636278 2.402421 -14.943423 -5.367762 2.354338 2.166212 1.564761 2.588896 -10.570088 -9.029632 -85.484457 -59.424188 116.265199 -1.639798 24.401167 16.673498 -5.535612 -0.725105 1.386751 3.657686 -12.114226 6.923363 62.521570 -51.041685 -104.635823 8.017067 -1.577563 5.442664 0.492067 -55.584104 9.621488 -92.136751 88.180893 -97.418907 -12.240329 -23.358429 14.822522 0.024435 -0.046538 -0.079087 9.867941 -51.749978 -6.474579 109.440144 77.564052 105.811475 -7.946877 -23.758290 2.716143 -0.004783 0.207490 0.005510
-37.901151 55.256642 -0.512109 -177.000920 -19.629183 -1.037921 -0.380284 17.602555 0.561716 -0.032513 1.915007 0.094041 -0.066600 3.192357 0.147901 -0.221842 15.479150 0.714256 1.172670 10.164821 -4.661670 2.395846 -14.945633 -5.366508 2.344687 2.169557 1.568410 2.618180 -10.529596 -8.944578 -85.409698 -59.434412 116.247032 -1.672969 24.357684 16.644719 -5.544119 -0.715547 1.403067 3.661154 -12.126983 6.888669 62.569923 -51.051385 -104.696002 8.022132 -1.555374 5.463295 0.470709 -55.561392 9.627248 -91.933952 88.175556 -97.238020 -12.150099 -23.351866 14.828606 0.028195 -0.055693 -0.080859 9.875592 -51.726883 -6.466222 109.405666 77.571982 105.772795 -7.953065 -23.760144 2.720620 0.006589 0.208955 0.005523
-37.898072 55.258227 -0.511457 -177.005378 -19.650229 -1.039390 -0.369087 17.616510 0.570728 -0.029092 1.915172 0.093768 -0.068435 3.197769 0.149265 -0.204669 15.488845 0.719714 1.182464 10.178003 -4.704468 2.366909 -14.958565 -5.346466 2.321390 2.171360 1.568642 2.642645 -10.494741 -8.860358 -85.329075 -59.441507 116.223771 -1.718042 24.301859 16.602561 -5.564901 -0.705286 1.416756 3.667261 -12.138268 6.851271 62.618959 -51.059617 -104.753880 8.034636 -1.572324 5.467585 0.452092 -55.534348 9.644577 -91.546306 88.154742 -96.857713 -12.108031 -23.341170 14.828330 -0.017913 -0.059604 -0.073824 9.874718 -51.703448 -6.449207 109.392992 77.579539 105.758563 -7.952856 -23.762731 2.723165 0.006051 0.211864 0.004884
-37.897888 55.260193 -0.511576 -176.996794 -19.674549 -1.030539 -0.365820 17.626675 0.566874 -0.036538 1.924283 0.091635 -0.066039 3.199323 0.149697 -0.203629 15.494575 0.720197 1.186044 10.186376 -4.719841 2.380019 -14.950395 -5.374919 2.312580 2.176693 1.570607 2.659735 -10.471365 -8.791496 -85.221826 -59.431037 116.177064 -1.770641 24.228334 16.546337 -5.570164 -0.691505 1.428754 3.675733 -12.140392 6.815513 62.655700 -51.066921 -104.803532 8.037115 -1.597065 5.465431 0.456626 -55.505282 9.636274 -91.242728 88.124849 -96.547289 -12.142067 -23.323863 14.839458 -0.002283 -0.053881 -0.057302 9.876991 -51.675940 -6.457441 109.367502 77.580379 105.724942 -7.950590 -23.754588 2.732842 -0.003553 0.207984 -0.000086
-37.897376 55.261505 -0.509437 -176.992013 -19.682500 -1.024576 -0.365758 17.628756 0.562579 -0.036078 1.925654 0.091645 -0.066291 3.200737 0.150372 -0.198447 15.500139 0.719583 1.187883 10.195071 -4.730827 2.410066 -14.921229 -5.420885 2.301982 2.192708 1.575595 2.673581 -10.467534 -8.743435 -85.104503 -59.402701 116.118685 -1.825580 24.141470 16.482282 -5.579984 -0.688116 1.434607 3.688722 -12.127088 6.786009 62.698880 -51.075564 -104.857622 8.042708 -1.625740 5.466013 0.438658 -55.500291 9.648827 -91.130306 88.101046 -96.447943 -12.136669 -23.273064 14.866328 0.025526 -0.080421 -0.061764 9.884753 -51.665691 -6.461772 109.335927 77.582153 105.683519 -7.953788 -23.745799 2.744568 -0.010276 0.204351 -0.002244
-37.894849 55.263593 -0.508951 -176.993472 -19.698648 -1.032542 -0.353442 17.638350 0.574291 -0.035485 1.926997 0.091649 -0.067694 3.204924 0.151445 -0.191422 15.502807 0.718567 1.185520 10.201985 -4.735810 2.415205 -14.906940 -5.431756 2.286336 2.199288 1.583755 2.681679 -10.468317 -8.731424 -84.976066 -59.341160 116.049370 -1.883947 24.048267 16.413616 -5.587231 -0.660100 1.454029 3.701405 -12.133417 6.741610 62.756256 -51.061008 -104.910521 8.048256 -1.672861 5.477266 0.408828 -55.479790 9.682585 -90.805412 88.087235 -96.134930 -12.111785 -23.239182 14.870362 0.025551 -0.093459 -0.055960 9.883345 -51.647781 -6.436590 109.329597 77.595553 105.679405 -7.970351 -23.745885 2.746442 0.003330 0.205590 0.005876
-37.893896 55.265807 -0.508299 -176.993206 -19.712520 -1.035655 -0.344685 17.646098 0.578668 -0.037013 1.928937 0.092132 -0.062130 3.204988 0.153063 -0.196053 15.507414 0.717994 1.182933 10.204279 -4.736331 2.425015 -14.884384 -5.443697 2.278233 2.207735 1.590807 2.704900 -10.452646 -8.683045 -84.904074 -59.329152 116.010411 -1.943678 23.953520 16.342755 -5.588857 -0.628175 1.471995 3.714010 -12.140193 6.695104 62.772410 -51.074614 -104.930604 8.072703 -1.722232 5.495404 0.388018 -55.462275 9.695833 -90.582796 88.082184 -95.930566 -12.036982 -23.208811 14.867673 0.028154 -0.109262 -0.051973 9.877787 -51.633931 -6.426144 109.318760 77.596071 105.666255 -7.968743 -23.743030 2.746711 0.004245 0.202509 0.006128
-37.894694 55.268059 -0.507339 -176.988342 -19.723193 -1.034189 -0.344384 17.653242 0.575659 -0.040741 1.931160 0.093111 -0.056513 3.203452 0.151639 -0.197808 15.511277 0.719141 1.188469 10.216778 -4.743501 2.420366 -14.871084 -5.440935 2.273193 2.211364 1.595403 2.730966 -10.422033 -8.584803 -84.868420 -59.376992 115.993354 -2.000640 23.864961 16.271948 -5.587202 -0.563698 1.514970 3.730207 -12.175428 6.619337 62.783564 -51.105146 -104.950371 8.113245 -1.762272 5.519872 0.367683 -55.457413 9.697808 -90.587260 88.033506 -95.948360 -11.921942 -23.155181 14.853602 0.049809 -0.145511 -0.039173 9.885450 -51.621161 -6.425782 109.298549 77.597560 105.641213 -7.980990 -23.736211 2.755701 0.005822 0.197698 0.008025
-37.894509 55.270484 -0.506661 -176.982652 -19.733509 -1.043556 -0.344842 17.657856 0.582585 -0.034746 1.934484 0.092479 -0.055642 3.205172 0.151468 -0.193240 15.515192 0.718605 1.187833 10.234320 -4.744473 2.410234 -14.871617 -5.434711 2.261338 2.212957 1.603096 2.738440 -10.412714 -8.538691 -84.846805 -59.399872 115.984484 -2.073344 23.800957 16.219867 -5.592435 -0.533263 1.540947 3.736942 -12.176725 6.565870 62.803337 -51.107712 -104.966279 8.135998 -1.789317 5.540082 0.336287 -55.447359 9.727184 -90.497660 88.006627 -95.864183 -11.911671 -23.115301 14.854591 0.060736 -0.155852 -0.026980 9.893835 -51.609207 -6.416578 109.273878 77.605617 105.622872 -7.996406 -23.731496 2.762050 0.006513 0.196801 0.012993
-37.896102 55.272887 -0.505995 -176.982530 -19.742433 -1.044909 -0.345836 17.659082 0.581364 -0.030187 1.936227 0.095029 -0.059515 3.202179 0.149233 -0.185827 15.521181 0.722409 1.183998 10.242915 -4.745375 2.408344 -14.870634 -5.434450 2.253882 2.223050 1.604042 2.746039 -10.407536 -8.497336 -84.769724 -59.396264 115.949440 -2.105457 23.738690 16.150925 -5.589231 -0.497114 1.558549 3.739556 -12.176541 6.510505 62.790481 -51.084751 -104.943335 8.137216 -1.825184 5.545642 0.320591 -55.432311 9.735121 -90.204218 88.003404 -95.571754 -11.939188 -23.090619 14.862985 0.053428 -0.147927 -0.022607 9.893808 -51.599993 -6.412398 109.261665 77.599695 105.605289 -7.997779 -23.727754 2.766572 0.009526 0.190046 0.010557
-37.896544 55.275391 -0.505946 -176.983134 -19.752641 -1.057032 -0.342965 17.666528 0.592629 -0.033075 1.933437 0.091803 -0.059344 3.204563 0.153594 -0.186884 15.523007 0.719741 1.187789 10.257766 -4.745845 2.412515 -14.854874 -5.435259 2.253962 2.238694 1.607223 2.760841 -10.410566 -8.464567 -84.697547 -59.395826 115.912574 -2.100336 23.697184 16.102639 -5.579207 -0.478876 1.567793 3.747698 -12.159028 6.464602 62.791757 -51.104637 -104.950886 8.183852 -1.857323 5.566557 0.298807 -55.420929 9.768053 -90.024635 87.964574 -95.385454 -11.978358 -23.057726 14.877839 0.051411 -0.145681 -0.015459 9.893754 -51.591692 -6.394103 109.263511 77.604948 105.615400 -8.012676 -23.724288 2.765326 0.019680 0.186668 0.018403
-37.898907 55.277954 -0.506587 -176.986053 -19.765403 -1.060220 -0.339914 17.676809 0.596655 -0.039805 1.929045 0.094437 -0.056261 3.209180 0.153096 -0.188289 15.524270 0.721603 1.189249 10.272426 -4.748570 2.411112 -14.805961 -5.432798 2.261379 2.246399 1.602975 2.764295 -10.411930 -8.450724 -84.643510 -59.388782 115.881366 -2.105088 23.666189 16.065855 -5.570570 -0.461777 1.570237 3.757681 -12.149270 6.427902 62.772531 -51.084772 -104.926120 8.197246 -1.882156 5.574233 0.294307 -55.404532 9.776919 -89.765514 87.935608 -95.124758 -12.014409 -23.027253 14.898966 0.045573 -0.142722 -0.013041 9.915383 -51.572264 -6.399502 109.224913 77.608354 105.591875 -8.025867 -23.729368 2.763916 0.031730 0.190278 0.023898
-37.901886 55.280208 -0.506965 -176.992529 -19.774311 -1.060490 -0.339570 17.682254 0.598113 -0.035609 1.931254 0.096786 -0.056297 3.209435 0.153243 -0.198230 15.524311 0.721246 1.193168 10.289291 -4.750387 2.408594 -14.788154 -5.430343 2.273145 2.250880 1.597601 2.770090 -10.409951 -8.438597 -84.608720 -59.386235 115.862752 -2.139728 23.641965 16.019916 -5.558481 -0.429242 1.583048 3.765698 -12.171382 6.397451 62.706395 -50.998392 -104.841220 8.157894 -1.910612 5.571465 0.299082 -55.392027 9.777223 -89.514979 87.908328 -94.881283 -12.008027 -23.001646 14.920873 0.043428 -0.142195 -0.014225 9.920302 -51.562839 -6.395062 109.224613 77.599017 105.587486 -8.032404 -23.727918 2.770060 0.030963 0.183792 0.020954
-37.905420 55.282061 -0.506811 -176.997382 -19.777702 -1.058782 -0.335805 17.683868 0.602534 -0.035539 1.933234 0.095155 -0.056036 3.209458 0.153409 -0.197266 15.523650 0.723784 1.185274 10.318392 -4.746254 2.402413 -14.781255 -5.428909 2.272299 2.254400 1.593161 2.783357 -10.410278 -8.419776 -84.593594 -59.403741 115.849166 -2.163469 23.649958 15.982714 -5.558577 -0.375213 1.606867 3.780450 -12.186813 6.329215 62.669838 -50.982537 -104.800222 8.150288 -1.931495 5.582390 0.307294 -55.385797 9.777008 -89.273357 87.895291 -94.636923 -12.066403 -22.972070 14.946437 0.037196 -0.138082 -0.014094 9.939478 -51.558832 -6.406067 109.215237 77.599265 105.585982 -8.036913 -23.721194 2.768307 0.034640 0.176265 0.023845
